# Blender 4.5.3 LTS
# www.blender.org
mtllib hub_3x3.mtl
o Cube
v -0.750000 0.184375 0.750000
v -0.750000 4.815625 0.750000
v -0.750000 0.184375 -0.750000
v -0.750000 4.815625 -0.750000
v 0.750000 0.184375 0.750000
v 0.750000 4.815625 0.750000
v 0.750000 0.184375 -0.750000
v 0.750000 4.815625 -0.750000
vn -1.0000 -0.0000 -0.0000
vn -0.0000 -0.0000 -1.0000
vn 1.0000 -0.0000 -0.0000
vn -0.0000 -0.0000 1.0000
vn -0.0000 -1.0000 -0.0000
vn -0.0000 1.0000 -0.0000
vt 0.787500 0.753125
vt 0.787500 0.996875
vt 0.212500 0.996875
vt 0.212500 0.753125
vt 0.212500 0.212500
vt 0.787500 0.212500
vt 0.787500 0.787500
vt 0.212500 0.787500
s 1
usemtl Material.004
f 1/1/1 2/2/1 4/3/1 3/4/1
f 3/1/2 4/2/2 8/3/2 7/4/2
f 7/1/3 8/2/3 6/3/3 5/4/3
f 5/1/4 6/2/4 2/3/4 1/4/4
f 3/5/5 7/6/5 5/7/5 1/8/5
f 8/5/6 4/6/6 2/7/6 6/8/6
o Plane.002
v -0.636792 4.625000 1.226692
v -1.226693 4.625000 0.636791
v 1.226693 4.625000 0.636791
v 0.636792 4.625000 1.226692
v -0.636792 4.625000 -1.226694
v -1.226693 4.625000 -0.636793
v 0.636792 4.625000 -1.226694
v 1.226693 4.625000 -0.636793
v -0.750000 5.000000 1.500000
v -1.500000 5.000000 0.750000
v 1.500000 5.000000 0.750000
v 0.750000 5.000000 1.500000
v -0.750000 5.000000 -1.500000
v -1.500000 5.000000 -0.750000
v 0.750000 5.000000 -1.500000
v 1.500000 5.000000 -0.750000
v -1.500000 4.625000 -0.750000
v -1.500000 4.625000 0.750000
v -0.750000 4.625000 1.500000
v 0.750000 4.625000 1.500000
v 1.500000 4.625000 0.750000
v 1.500000 4.625000 -0.750000
v 0.750000 4.625000 -1.500000
v -0.750000 4.625000 -1.500000
v 0.636792 5.000000 -1.226694
v -1.226693 5.000000 -0.636793
v -0.636792 5.000000 -1.226694
v 1.226693 5.000000 -0.636793
v -1.226693 5.000000 0.636791
v 1.226693 5.000000 0.636791
v 0.636792 5.000000 1.226692
v -0.636792 5.000000 1.226692
vn -0.0000 1.0000 -0.0000
vn 0.7071 -0.0000 0.7071
vn -0.7071 -0.0000 0.7071
vn -0.0000 -0.0000 -1.0000
vn 1.0000 -0.0000 -0.0000
vn -0.0000 -0.0000 1.0000
vn -1.0000 -0.0000 -0.0000
vn -0.7071 -0.0000 -0.7071
vn 0.7071 -0.0000 -0.7071
vn -0.0000 -1.0000 -0.0000
vt 0.999977 0.454827
vt 0.549962 0.454827
vt 0.549962 1.000420
vt 0.999977 1.000420
vt 0.550000 0.363750
vt 1.000000 0.363750
vt 1.000000 0.000000
vt 0.550000 0.000000
vt 0.000000 0.000000
vt 0.000000 0.363750
vt -0.000101 0.361035
vt 0.551454 0.361035
vt 0.550914 1.004227
vt -0.000101 1.005163
vt 1.000549 0.365946
vt 0.550698 0.365181
vt 0.551648 1.001297
vt 1.000343 0.999050
vt 0.712264 0.091102
vt 0.287736 0.091102
vt 0.091102 0.712264
vt 0.287736 0.908898
vt 0.712264 0.908898
vt 0.908898 0.712264
vt 0.908897 0.287736
vt 0.908898 0.287736
vt 0.091102 0.287736
vt 0.000000 1.000000
vt 0.550000 1.000000
vt 0.550000 0.455000
vt 0.000000 0.450000
s 1
usemtl Material.001
f 18/9/7 17/10/7 40/11/7 37/12/7
f 28/13/8 29/14/8 19/15/8 20/16/8
f 26/13/9 27/14/9 17/15/9 18/16/9
f 31/17/10 32/16/10 21/13/10 23/18/10
f 29/17/11 30/16/11 24/13/11 19/18/11
f 27/18/12 28/13/12 20/16/12 17/17/12
f 25/18/13 26/13/13 18/16/13 22/17/13
f 32/16/14 25/15/14 22/14/14 21/13/14
f 30/16/15 31/15/15 23/14/15 24/13/15
f 14/19/16 10/20/16 26/21/16 25/22/16
f 10/23/16 9/24/16 27/25/16 26/26/16
f 9/20/16 12/19/16 28/22/16 27/21/16
f 12/23/16 11/24/16 29/25/16 28/26/16
f 11/20/16 16/19/16 30/22/16 29/21/16
f 16/24/16 15/23/16 31/26/16 30/25/16
f 15/19/16 13/20/16 32/21/16 31/22/16
f 13/24/16 14/23/16 25/26/16 32/25/16
f 12/27/12 39/27/12 40/28/12 9/28/12
f 14/29/14 34/29/14 35/30/14 13/30/14
f 13/30/10 35/30/10 33/31/10 15/31/10
f 16/32/11 36/32/11 38/33/11 11/34/11
f 15/31/15 33/31/15 36/32/15 16/32/15
f 11/34/8 38/33/8 39/27/8 12/27/8
f 10/35/13 37/35/13 34/29/13 14/29/13
f 37/36/7 34/37/7 22/38/7 18/39/7
f 9/28/9 40/28/9 37/35/9 10/35/9
f 38/36/7 19/39/7 24/38/7 36/37/7
f 39/12/7 20/9/7 19/10/7 38/11/7
f 40/36/7 17/39/7 20/38/7 39/37/7
f 22/9/7 34/12/7 35/11/7 21/10/7
f 21/39/7 35/36/7 33/37/7 23/38/7
f 23/10/7 33/11/7 36/12/7 24/9/7
o Plane.003
v -0.653125 0.375000 1.375000
v -1.375000 0.375000 0.653125
v 1.375000 0.375000 0.653125
v 0.653125 0.375000 1.375000
v -1.375000 0.375000 -0.653125
v -0.653125 0.375000 -1.375000
v 0.653125 0.375000 -1.375000
v 1.375000 0.375000 -0.653125
v -0.653125 4.625140 -1.375000
v -1.375000 4.625140 -0.653125
v -1.375000 4.625140 0.653125
v -0.653125 4.625140 1.375000
v 0.653125 4.625140 1.375000
v 1.375000 4.625140 0.653125
v 1.375000 4.625140 -0.653125
v 0.653125 4.625140 -1.375000
vn -0.7071 -0.0000 0.7071
vn -0.7071 -0.0000 -0.7071
vn 0.7071 -0.0000 -0.7071
vn 0.7071 -0.0000 0.7071
vn -1.0000 -0.0000 -0.0000
vn -0.0000 -0.0000 1.0000
vn 1.0000 -0.0000 -0.0000
vn -0.0000 -0.0000 -1.0000
vt 0.999842 0.000310
vt 0.999842 1.002084
vt 0.577864 1.002098
vt 0.577810 0.000158
vt 0.577783 1.002098
vt 0.999842 0.000324
vt 0.999760 1.002098
vt 0.577782 1.002098
vt 0.000158 0.000352
vt 0.000288 1.002092
vt 0.000158 0.000334
vt 0.000206 1.002074
s 1
usemtl Material
f 41/40/17 52/41/17 51/42/17 42/43/17
f 49/44/18 46/43/18 45/45/18 50/46/18
f 55/42/19 48/43/19 47/40/19 56/41/19
f 43/45/20 54/46/20 53/47/20 44/43/20
f 45/48/21 42/43/21 51/42/21 50/49/21
f 41/50/22 44/43/22 53/47/22 52/51/22
f 43/48/23 48/43/23 55/42/23 54/49/23
f 47/50/24 46/43/24 49/44/24 56/51/24
o Plane.006
v -1.260740 0.375000 0.696775
v -1.260740 0.375000 -0.696776
v -0.696776 0.375000 -1.260741
v 0.696776 0.375000 -1.260741
v 1.260740 0.375000 -0.696776
v 1.260740 0.375000 0.696775
v 0.696776 0.375000 1.260740
v -0.696776 0.375000 1.260740
v -1.260740 4.625000 -0.696776
v -1.260740 4.625000 0.696776
v -0.696776 4.625000 1.260740
v 0.696776 4.625000 1.260740
v 1.260740 4.625000 0.696776
v 1.260740 4.625000 -0.696776
v 0.696776 4.625000 -1.260741
v -0.696776 4.625000 -1.260741
v -0.996871 0.375000 0.988966
v -0.996871 0.375000 -0.988966
v 0.988966 0.375000 -0.996871
v 0.988966 0.375000 0.996871
v -0.996871 4.625000 -0.988965
v -0.996871 4.625000 0.988967
v 0.996871 4.625000 0.988967
v 0.988966 4.625000 -0.996870
vn -0.0000 -1.0000 -0.0000
vn -0.0000 1.0000 -0.0000
vt 0.178657 0.178657
vt 0.821343 0.178657
vt 0.821343 0.821343
vt 0.178657 0.821343
vt 0.000000 0.707763
vt -0.000000 0.292237
vt 0.294267 -0.000000
vt 0.705733 -0.000000
vt 1.000000 0.294619
vt 1.000000 0.705381
vt 0.707300 1.000000
vt 0.292700 1.000000
s 1
usemtl Material.003
f 74/52/25 75/53/25 76/54/25 73/55/25
f 78/52/26 79/53/26 80/54/26 77/55/26
f 74/52/25 73/55/25 57/56/25 58/57/25
f 74/52/26 58/57/26 59/58/26
f 75/53/25 74/52/25 59/58/25 60/59/25
f 75/53/26 60/59/26 61/60/26
f 76/54/25 75/53/25 61/60/25 62/61/25
f 76/54/26 62/61/26 63/62/26
f 73/55/25 76/54/25 63/62/25 64/63/25
f 73/55/26 64/63/26 57/56/26
f 78/52/26 77/55/26 65/56/26 66/57/26
f 78/52/25 66/57/25 67/58/25
f 79/53/26 78/52/26 67/58/26 68/59/26
f 79/53/25 68/59/25 69/60/25
f 80/54/26 79/53/26 69/60/26 70/61/26
f 80/54/25 70/61/25 71/62/25
f 77/55/26 80/54/26 71/62/26 72/63/26
f 77/55/25 72/63/25 65/56/25
o Plane.007
v -0.636792 0.375000 1.226693
v -1.226693 0.375000 0.636792
v 1.226693 0.375000 0.636792
v 0.636792 0.375000 1.226693
v -0.636792 0.375000 -1.226693
v -1.226693 0.375000 -0.636793
v 0.636792 0.375000 -1.226693
v 1.226693 0.375000 -0.636793
v -0.750000 -0.000000 1.500000
v -1.500000 -0.000000 0.750000
v 1.500000 -0.000000 0.750000
v 0.750000 -0.000000 1.500000
v -0.750000 -0.000000 -1.500000
v -1.500000 -0.000000 -0.750000
v 0.750000 -0.000000 -1.500000
v 1.500000 -0.000000 -0.750000
v -1.500000 0.375000 -0.750000
v -1.500000 0.375000 0.750000
v -0.750000 0.375000 1.500000
v 0.750000 0.375000 1.500000
v 1.500000 0.375000 0.750000
v 1.500000 0.375000 -0.750000
v 0.750000 0.375000 -1.500000
v -0.750000 0.375000 -1.500000
v 0.636792 -0.000000 -1.226693
v -1.226693 -0.000000 -0.636793
v -0.636792 -0.000000 -1.226693
v 1.226693 -0.000000 -0.636793
v -1.226693 -0.000000 0.636792
v 1.226693 -0.000000 0.636792
v 0.636792 -0.000000 1.226693
v -0.636792 -0.000000 1.226693
vn -0.0000 1.0000 -0.0000
vn -0.7071 -0.0000 -0.7071
vn 0.7071 -0.0000 -0.7071
vn -0.0000 -0.0000 1.0000
vn -1.0000 -0.0000 -0.0000
vn -0.0000 -0.0000 -1.0000
vn 1.0000 -0.0000 -0.0000
vn 0.7071 -0.0000 0.7071
vn -0.7071 -0.0000 0.7071
vn -0.0000 -1.0000 -0.0000
vt 0.999977 0.454827
vt 0.549962 0.454827
vt 0.549962 1.000420
vt 0.999977 1.000420
vt 0.550000 0.363750
vt 1.000000 0.363750
vt 1.000000 0.000000
vt 0.550000 0.000000
vt 0.000000 0.000000
vt 0.000000 0.363750
vt -0.000101 0.361035
vt 0.551454 0.361035
vt 0.550914 1.004227
vt -0.000101 1.005163
vt 1.000549 0.365946
vt 0.550698 0.365181
vt 0.551648 1.001297
vt 1.000343 0.999050
vt 0.712264 0.091102
vt 0.287736 0.091102
vt 0.091102 0.712264
vt 0.287736 0.908898
vt 0.712264 0.908898
vt 0.908898 0.712264
vt 0.908897 0.287736
vt 0.908898 0.287736
vt 0.091102 0.287736
vt 0.000000 1.000000
vt 0.550000 1.000000
vt 0.550000 0.455000
vt 0.000000 0.450000
s 1
usemtl Material.002
f 90/64/27 89/65/27 112/66/27 109/67/27
f 100/68/28 101/69/28 91/70/28 92/71/28
f 98/68/29 99/69/29 89/70/29 90/71/29
f 103/72/30 104/71/30 93/68/30 95/73/30
f 101/72/31 102/71/31 96/68/31 91/73/31
f 99/73/32 100/68/32 92/71/32 89/72/32
f 97/73/33 98/68/33 90/71/33 94/72/33
f 104/71/34 97/70/34 94/69/34 93/68/34
f 102/71/35 103/70/35 95/69/35 96/68/35
f 86/74/36 82/75/36 98/76/36 97/77/36
f 82/78/36 81/79/36 99/80/36 98/81/36
f 81/75/36 84/74/36 100/77/36 99/76/36
f 84/78/36 83/79/36 101/80/36 100/81/36
f 83/75/36 88/74/36 102/77/36 101/76/36
f 88/79/36 87/78/36 103/81/36 102/80/36
f 87/74/36 85/75/36 104/76/36 103/77/36
f 85/79/36 86/78/36 97/81/36 104/80/36
f 84/82/32 111/82/32 112/83/32 81/83/32
f 86/84/34 106/84/34 107/85/34 85/85/34
f 85/85/30 107/85/30 105/86/30 87/86/30
f 88/87/31 108/87/31 110/88/31 83/89/31
f 87/86/35 105/86/35 108/87/35 88/87/35
f 83/89/28 110/88/28 111/82/28 84/82/28
f 82/90/33 109/90/33 106/84/33 86/84/33
f 109/91/27 106/92/27 94/93/27 90/94/27
f 81/83/29 112/83/29 109/90/29 82/90/29
f 110/91/27 91/94/27 96/93/27 108/92/27
f 111/67/27 92/64/27 91/65/27 110/66/27
f 112/91/27 89/94/27 92/93/27 111/92/27
f 94/64/27 106/67/27 107/66/27 93/65/27
f 93/94/27 107/91/27 105/92/27 95/93/27
f 95/65/27 105/66/27 108/67/27 96/64/27
