# Blender 5.1.2
# www.blender.org
mtllib model.mtl
o top_dock.001
v 0.478968 1.261352 0.478967
v 0.478968 1.261352 -0.478968
v -0.478968 1.261352 -0.478968
v -0.478968 1.261352 0.478967
v 1.121102 -1.236153 -1.121102
v -1.121102 -1.236153 -1.121102
v 1.121102 -1.236153 1.121102
v -1.121102 -1.236153 1.121102
v 0.314822 1.329789 0.653970
v 0.653969 1.329789 0.314823
v 0.932802 -1.132234 1.286356
v 1.286356 -1.132234 0.932802
v 0.536469 1.260960 0.197324
v 0.197324 1.260960 0.536470
v 1.163865 -1.203987 0.810312
v 0.810312 -1.203987 1.163865
v -0.653062 1.329033 0.313936
v -0.313916 1.329034 0.653081
v -1.285433 -1.133022 0.931879
v -0.931879 -1.133022 1.285432
v -0.196418 1.260204 0.535582
v -0.535564 1.260204 0.196436
v -0.809389 -1.204775 1.162942
v -1.162943 -1.204775 0.809389
v 0.653634 1.329033 -0.313364
v 0.314487 1.329034 -0.652510
v 1.286004 -1.133022 -0.931307
v 0.932450 -1.133022 -1.284860
v 0.196989 1.260204 -0.535011
v 0.536136 1.260204 -0.195865
v 0.809960 -1.204775 -1.162370
v 1.163514 -1.204776 -0.808817
v -0.314251 1.329789 -0.653399
v -0.653397 1.329789 -0.314253
v -0.932231 -1.132235 -1.285784
v -1.285784 -1.132234 -0.932231
v -0.535898 1.260960 -0.196754
v -0.196753 1.260960 -0.535899
v -1.163294 -1.203987 -0.809741
v -0.809741 -1.203988 -1.163294
v -0.500000 0.338179 0.913966
v 0.500000 0.338179 0.913966
v -0.500000 -0.621870 1.165763
v 0.500000 -0.621870 1.165763
v 0.499818 0.286002 0.775921
v 0.499818 -0.674048 1.027718
v -0.500182 0.286002 0.775921
v -0.500182 -0.674048 1.027718
v -1.160900 -0.609751 0.500000
v -0.912717 0.350391 0.500000
v -1.160900 -0.609751 -0.500000
v -0.912717 0.350391 -0.500000
v -0.960751 -0.668018 -0.500000
v -0.960751 -0.668018 0.500000
v -0.712568 0.292124 0.500000
v -0.712568 0.292124 -0.500000
v -0.613310 -1.500000 1.170000
v -1.170000 -1.500000 0.613310
v 1.170000 -1.500000 0.613310
v 0.613310 -1.500000 1.170000
v -0.613310 -1.500000 -1.170000
v -1.170000 -1.500000 -0.613310
v 0.613310 -1.500000 -1.170000
v 1.170000 -1.500000 -0.613310
v -0.613310 -1.125000 1.170000
v -1.170000 -1.125000 0.613310
v 1.170000 -1.125000 0.613310
v 0.613310 -1.125000 1.170000
v -0.613310 -1.125000 -1.170000
v -1.170000 -1.125000 -0.613310
v 0.613310 -1.125000 -1.170000
v 1.170000 -1.125000 -0.613310
v -1.500000 -1.500000 -0.750000
v -1.500000 -1.500000 0.750000
v -0.750000 -1.500000 1.500000
v 0.750000 -1.500000 1.500000
v 1.500000 -1.500000 0.750000
v 1.500000 -1.500000 -0.750000
v 0.750000 -1.500000 -1.500000
v -0.750000 -1.500000 -1.500000
v -1.500000 -1.125000 -0.750000
v -1.500000 -1.125000 0.750000
v -0.750000 -1.125000 1.500000
v 0.750000 -1.125000 1.500000
v 1.500000 -1.125000 0.750000
v 1.500000 -1.125000 -0.750000
v 0.750000 -1.125000 -1.500000
v -0.750000 -1.125000 -1.500000
v 0.500000 1.421875 0.500000
v 0.500000 1.421875 -0.500000
v -0.500000 1.421875 -0.500000
v -0.500000 1.421875 0.500000
v 1.177903 -1.444391 -1.177903
v -1.177903 -1.444391 -1.177903
v 1.177903 -1.444391 1.177903
v -1.177903 -1.444391 1.177903
vn -0.9685 0.2490 -0.0000
vn 0.9685 0.2490 -0.0000
vn -0.0000 0.2490 0.9685
vn -0.0000 0.2490 -0.9685
vn 0.7060 0.0036 -0.7082
vn 0.6655 0.3380 0.6655
vn -0.7082 0.0036 0.7060
vn -0.6662 -0.3352 -0.6662
vn 0.7082 0.0036 0.7060
vn -0.6655 0.3380 0.6655
vn -0.7060 0.0036 -0.7082
vn 0.6662 -0.3352 -0.6662
vn -0.7082 0.0036 -0.7060
vn 0.6655 0.3380 -0.6655
vn 0.7060 0.0036 0.7082
vn -0.6662 -0.3352 0.6662
vn -0.7060 0.0036 0.7082
vn -0.6655 0.3380 -0.6655
vn 0.7082 0.0036 -0.7060
vn 0.6662 -0.3352 0.6662
vn -0.0000 0.2537 0.9673
vn -0.0000 0.9354 -0.3536
vn -1.0000 0.0003 0.0012
vn -0.0000 -0.9354 0.3536
vn 1.0000 -0.0003 -0.0012
vn -0.9682 0.2503 -0.0000
vn -0.2795 -0.9601 -0.0000
vn -0.0000 -0.0000 -1.0000
vn -0.0000 -0.0000 1.0000
vn 0.2795 0.9601 -0.0000
vn 0.7071 -0.0000 -0.7071
vn 1.0000 -0.0000 -0.0000
vn -1.0000 -0.0000 -0.0000
vn -0.7071 -0.0000 -0.7071
vn 0.7071 -0.0000 0.7071
vn -0.7071 -0.0000 0.7071
vn -0.0000 -1.0000 -0.0000
vn -0.0000 1.0000 -0.0000
vt 0.908163 1.000000
vt 1.000000 0.619048
vt 0.673469 0.619048
vt 0.765306 1.000000
vt 0.571429 1.000000
vt 0.663265 0.619048
vt 0.336735 0.619048
vt 0.428571 1.000000
vt 0.122449 0.428571
vt -0.000000 0.428571
vt -0.000000 -0.000000
vt 0.122449 -0.000000
vt 0.000000 0.750000
vt 0.183673 0.750000
vt 0.183673 0.964286
vt 0.000000 0.964286
vt 0.183673 1.000000
vt 0.000000 1.000000
vt 0.163265 0.428571
vt 0.163265 0.619048
vt -0.000000 0.619048
vt 0.030612 0.619048
vt 0.030612 0.428571
vt 0.367347 0.059524
vt 0.122449 0.059524
vt 0.367347 0.000000
vt 0.551020 0.059524
vt 0.551020 0.000000
vt 0.367347 0.130952
vt 0.122449 0.130952
vt 0.122449 0.071429
vt 0.367347 0.071429
vt 0.551020 0.130952
vt 0.551020 0.071429
vt 0.326531 0.428571
vt 0.326531 0.619048
vt 0.612245 0.452381
vt 1.000000 0.452381
vt 1.000000 0.000000
vt 0.612245 -0.000000
s 1
usemtl Material.003
f 3/1/1 6/2/1 8/3/1 4/4/1
f 1/5/2 7/6/2 5/7/2 2/8/2
f 4/5/3 8/6/3 7/7/3 1/8/3
f 2/5/4 5/6/4 6/7/4 3/8/4
f 12/9/5 15/10/5 13/11/5 10/12/5
f 11/9/6 12/10/6 10/11/6 9/12/6
f 16/11/7 11/12/7 9/9/7 14/10/7
f 15/11/8 16/12/8 14/9/8 13/10/8
f 20/11/9 23/12/9 21/9/9 18/10/9
f 19/11/10 20/12/10 18/9/10 17/10/10
f 24/11/11 19/12/11 17/9/11 22/10/11
f 23/11/12 24/12/12 22/9/12 21/10/12
f 28/11/13 31/12/13 29/9/13 26/10/13
f 27/11/14 28/12/14 26/9/14 25/10/14
f 32/11/15 27/12/15 25/9/15 30/10/15
f 31/11/16 32/12/16 30/9/16 29/10/16
f 36/9/17 39/10/17 37/11/17 34/12/17
f 35/9/18 36/10/18 34/11/18 33/12/18
f 40/11/19 35/12/19 33/9/19 38/10/19
f 39/11/20 40/12/20 38/9/20 37/10/20
f 43/13/21 44/14/21 42/15/21 41/16/21
f 42/17/22 45/15/22 47/16/22 41/18/22
f 41/17/23 47/15/23 48/16/23 43/18/23
f 43/17/24 48/15/24 46/16/24 44/18/24
f 44/17/25 46/15/25 45/16/25 42/18/25
f 49/10/26 50/19/26 52/20/26 51/21/26
f 51/21/27 53/22/27 54/23/27 49/10/27
f 52/21/28 56/22/28 53/23/28 51/10/28
f 49/21/29 54/22/29 55/23/29 50/10/29
f 50/21/30 55/22/30 56/23/30 52/10/30
f 65/24/28 68/25/28 60/12/28 57/26/28
f 66/27/31 65/24/31 57/26/31 58/28/31
f 79/24/28 80/25/28 88/12/28 87/26/28
f 77/24/32 78/25/32 86/12/32 85/26/32
f 75/24/29 76/25/29 84/12/29 83/26/29
f 73/24/33 74/25/33 82/12/33 81/26/33
f 80/27/34 73/24/34 81/26/34 88/28/34
f 78/27/31 79/24/31 87/26/31 86/28/31
f 76/27/35 77/24/35 85/26/35 84/28/35
f 74/27/36 75/24/36 83/26/36 82/28/36
f 62/29/37 58/30/37 74/31/37 73/32/37
f 58/33/37 57/29/37 75/32/37 74/34/37
f 57/29/37 60/30/37 76/31/37 75/32/37
f 60/33/37 59/29/37 77/32/37 76/34/37
f 59/29/37 64/30/37 78/31/37 77/32/37
f 64/33/37 63/29/37 79/32/37 78/34/37
f 63/29/37 61/30/37 80/31/37 79/32/37
f 61/33/37 62/29/37 73/32/37 80/34/37
f 66/31/38 70/32/38 81/29/38 82/30/38
f 65/32/38 66/34/38 82/33/38 83/29/38
f 68/31/38 65/32/38 83/29/38 84/30/38
f 67/32/38 68/34/38 84/33/38 85/29/38
f 72/31/38 67/32/38 85/29/38 86/30/38
f 71/32/38 72/34/38 86/33/38 87/29/38
f 69/31/38 71/32/38 87/29/38 88/30/38
f 70/32/38 69/34/38 88/33/38 81/29/38
f 68/27/34 67/24/34 59/26/34 60/28/34
f 67/24/33 72/25/33 64/12/33 59/26/33
f 72/27/36 71/24/36 63/26/36 64/28/36
f 71/24/29 69/25/29 61/12/29 63/26/29
f 69/27/35 70/24/35 62/26/35 61/28/35
f 70/24/32 66/25/32 58/12/32 62/26/32
f 92/20/38 89/19/38 90/35/38 91/36/38
f 96/37/37 94/38/37 93/39/37 95/40/37
o Plane
v -0.170103 1.250244 0.385791
v -0.385791 1.250244 0.170103
v 0.385791 1.250244 0.170103
v 0.170103 1.250244 0.385791
v -0.170103 1.250244 -0.385791
v -0.385791 1.250244 -0.170103
v 0.170103 1.250244 -0.385791
v 0.385791 1.250244 -0.170103
v -0.170103 1.498820 0.385791
v -0.385791 1.498820 0.170103
v 0.385791 1.498820 0.170103
v 0.170103 1.498820 0.385791
v -0.170103 1.498820 -0.385791
v -0.385791 1.498820 -0.170103
v 0.170103 1.498820 -0.385791
v 0.385791 1.498820 -0.170103
v -0.710000 1.250244 -0.304395
v -0.710000 1.250244 0.304395
v -0.304395 1.250244 0.710000
v 0.304395 1.250244 0.710000
v 0.710000 1.250244 0.304395
v 0.710000 1.250244 -0.304395
v 0.304395 1.250244 -0.710000
v -0.304395 1.250244 -0.710000
v -0.710000 1.498820 -0.304395
v -0.710000 1.498820 0.304395
v -0.304395 1.498820 0.710000
v 0.304395 1.498820 0.710000
v 0.710000 1.498820 0.304395
v 0.710000 1.498820 -0.304395
v 0.304395 1.498820 -0.710000
v -0.304395 1.498820 -0.710000
vn -0.7071 -0.0000 -0.7071
vn -0.0000 -0.0000 -1.0000
vn -0.7071 -0.0000 0.7071
vn 1.0000 -0.0000 -0.0000
vn -0.0000 -0.0000 1.0000
vn -1.0000 -0.0000 -0.0000
vn 0.7071 -0.0000 -0.7071
vn 0.7071 -0.0000 0.7071
vn -0.0000 -1.0000 -0.0000
vn -0.0000 1.0000 -0.0000
vt 0.367347 0.071429
vt 0.367347 0.000000
vt 0.551020 0.000000
vt 0.551020 0.071429
vt 0.122449 0.071429
vt 0.122449 0.000000
vt 0.551020 0.071429
vt 0.367347 0.071429
vt 0.122449 0.071429
vt 0.540816 0.130952
vt 0.377551 0.130952
vt 0.408163 0.071429
vt 0.510204 0.071429
vt 0.357143 0.130952
vt 0.132653 0.130952
vt 0.183673 0.071429
vt 0.306122 0.071429
vt 0.408163 0.071429
s 0
usemtl Material.003
f 100/41/39 108/42/39 107/43/39 99/44/39
f 97/45/40 105/46/40 108/42/40 100/41/40
f 114/42/41 115/43/41 123/47/41 122/48/41
f 119/46/40 120/42/40 128/48/40 127/49/40
f 117/46/42 118/42/42 126/48/42 125/49/42
f 115/46/43 116/42/43 124/48/43 123/49/43
f 113/46/44 114/42/44 122/48/44 121/49/44
f 120/42/39 113/43/39 121/47/39 128/48/39
f 118/42/45 119/43/45 127/47/45 126/48/45
f 116/42/46 117/43/46 125/47/46 124/48/46
f 102/50/47 98/51/47 114/52/47 113/53/47
f 98/54/47 97/55/47 115/56/47 114/57/47
f 97/50/47 100/51/47 116/52/47 115/53/47
f 100/54/47 99/55/47 117/56/47 116/57/47
f 99/50/47 104/51/47 118/52/47 117/53/47
f 104/54/47 103/55/47 119/56/47 118/57/47
f 103/50/47 101/51/47 120/52/47 119/53/47
f 101/54/47 102/55/47 113/56/47 120/57/47
f 106/58/48 110/53/48 121/50/48 122/51/48
f 105/56/48 106/57/48 122/54/48 123/55/48
f 108/58/48 105/53/48 123/50/48 124/51/48
f 107/56/48 108/57/48 124/54/48 125/55/48
f 112/58/48 107/53/48 125/50/48 126/51/48
f 111/56/48 112/57/48 126/54/48 127/55/48
f 109/58/48 111/53/48 127/50/48 128/51/48
f 110/56/48 109/57/48 128/54/48 121/55/48
f 99/45/44 107/46/44 112/42/44 104/41/44
f 104/41/41 112/42/41 111/43/41 103/44/41
f 103/45/43 111/46/43 109/42/43 101/41/43
f 101/41/46 109/42/46 110/43/46 102/44/46
f 102/45/42 110/46/42 106/42/42 98/41/42
f 98/41/45 106/42/45 105/43/45 97/44/45
