# Made in Blockbench 5.0.7
mtllib ubendhalf.mtl

o cube
v 0.25 -1.78125 0.5
v 0.25 -1.78125 -0.5
v 0.25 -2 0.5
v 0.25 -2 -0.5
v -0.25 -1.78125 -0.5
v -0.25 -1.78125 0.5
v -0.25 -2 -0.5
v -0.25 -2 0.5
vt 0.5 0.96875
vt 1 0.96875
vt 1 0.75
vt 0.5 0.75
vt 0 0.96875
vt 1 0.96875
vt 1 0.75
vt 0 0.75
vt 0 0.96875
vt 0.5 0.96875
vt 0.5 0.75
vt 0 0.75
vt 0 0.96875
vt 1 0.96875
vt 1 0.75
vt 0 0.75
vt 0 1
vt 0.5 1
vt 0.5 0
vt 0 0
vt 0 1
vt 0.5 1
vt 0.5 0
vt 0 0
vn 0 0 -1
vn 1 0 0
vn 0 0 1
vn -1 0 0
vn 0 1 0
vn 0 -1 0
usemtl none
f 4/4/1 7/3/1 5/2/1 2/1/1
f 3/8/2 4/7/2 2/6/2 1/5/2
f 8/12/3 3/11/3 1/10/3 6/9/3
f 7/16/4 8/15/4 6/14/4 5/13/4
f 6/20/5 1/19/5 2/18/5 5/17/5
f 7/24/6 4/23/6 3/22/6 8/21/6
o cube
v 0.25 -1.34375 0.25
v 0.25 -1.34375 -0.25
v 0.25 -1.65625 0.25
v 0.25 -1.65625 -0.25
v -0.25 -1.34375 -0.25
v -0.25 -1.34375 0.25
v -0.25 -1.65625 -0.25
v -0.25 -1.65625 0.25
vt 0.5 1
vt 1 1
vt 1 0.6875
vt 0.5 0.6875
vt 0 1
vt 0.5 1
vt 0.5 0.6875
vt 0 0.6875
vt 0 1
vt 0.5 1
vt 0.5 0.6875
vt 0 0.6875
vt 0.25 1
vt 0.75 1
vt 0.75 0.6875
vt 0.25 0.6875
vt 0 0.75
vt 0.5 0.75
vt 0.5 0.25
vt 0 0.25
vt 0 1
vt 0.5 1
vt 0.5 0.5
vt 0 0.5
vn 0 0 -1
vn 1 0 0
vn 0 0 1
vn -1 0 0
vn 0 1 0
vn 0 -1 0
usemtl none
f 12/28/7 15/27/7 13/26/7 10/25/7
f 11/32/8 12/31/8 10/30/8 9/29/8
f 16/36/9 11/35/9 9/34/9 14/33/9
f 15/40/10 16/39/10 14/38/10 13/37/10
f 14/44/11 9/43/11 10/42/11 13/41/11
f 15/48/12 12/47/12 11/46/12 16/45/12
o cube
v 0.25 -1.21875 -0.49999999999999994
v 0.25 -1.21875 0.5
v 0.25 -0.9999999999999999 -0.49999999999999994
v 0.25 -1 0.5000000000000001
v -0.25 -1.21875 0.5
v -0.25 -1.21875 -0.49999999999999994
v -0.25 -1 0.5000000000000001
v -0.25 -0.9999999999999999 -0.49999999999999994
vt 0.5 0.96875
vt 1 0.96875
vt 1 0.75
vt 0.5 0.75
vt 0 0.96875
vt 1 0.96875
vt 1 0.75
vt 0 0.75
vt 0 0.96875
vt 0.5 0.96875
vt 0.5 0.75
vt 0 0.75
vt 0 0.96875
vt 1 0.96875
vt 1 0.75
vt 0 0.75
vt 0 1
vt 0.5 1
vt 0.5 0
vt 0 0
vt 0 1
vt 0.5 1
vt 0.5 0
vt 0 0
vn 0 -0.000000 1
vn 1 0 0
vn 0 0.000000 -1
vn -1 0 0
vn 0 -1 -0.000000
vn 0 1 0.000000
usemtl none
f 20/52/13 23/51/13 21/50/13 18/49/13
f 19/56/14 20/55/14 18/54/14 17/53/14
f 24/60/15 19/59/15 17/58/15 22/57/15
f 23/64/16 24/63/16 22/62/16 21/61/16
f 22/68/17 17/67/17 18/66/17 21/65/17
f 23/72/18 20/71/18 19/70/18 24/69/18
o cube
v 0.25 -1.34375 -0.375
v 0.25 -1.34375 0.375
v 0.25 -1.21875 -0.37499999999999994
v 0.25 -1.21875 0.37500000000000006
v -0.25 -1.34375 0.375
v -0.25 -1.34375 -0.375
v -0.25 -1.21875 0.37500000000000006
v -0.25 -1.21875 -0.37499999999999994
vt 0.5 0.96875
vt 1 0.96875
vt 1 0.84375
vt 0.5 0.84375
vt 0 0.96875
vt 0.75 0.96875
vt 0.75 0.84375
vt 0 0.84375
vt 0 0.96875
vt 0.5 0.96875
vt 0.5 0.84375
vt 0 0.84375
vt 0.0625 0.96875
vt 0.8125 0.96875
vt 0.8125 0.84375
vt 0.0625 0.84375
vt 0 0.9375
vt 0.5 0.9375
vt 0.5 0.1875
vt 0 0.1875
vt 0 1
vt 0.5 1
vt 0.5 0.25
vt 0 0.25
vn 0 -0.000000 1
vn 1 0 0
vn 0 0.000000 -1
vn -1 0 0
vn 0 -1 -0.000000
vn 0 1 0.000000
usemtl none
f 28/76/19 31/75/19 29/74/19 26/73/19
f 27/80/20 28/79/20 26/78/20 25/77/20
f 32/84/21 27/83/21 25/82/21 30/81/21
f 31/88/22 32/87/22 30/86/22 29/85/22
f 30/92/23 25/91/23 26/90/23 29/89/23
f 31/96/24 28/95/24 27/94/24 32/93/24
o cube
v 0.25 -1.78125 -0.37500000000000006
v 0.25 -1.78125 0.37499999999999994
v 0.25 -1.65625 -0.375
v 0.25 -1.65625 0.375
v -0.25 -1.78125 0.37499999999999994
v -0.25 -1.78125 -0.37500000000000006
v -0.25 -1.65625 0.375
v -0.25 -1.65625 -0.375
vt 0.5 0.90625
vt 1 0.90625
vt 1 0.78125
vt 0.5 0.78125
vt 0 0.90625
vt 0.75 0.90625
vt 0.75 0.78125
vt 0 0.78125
vt 0 0.90625
vt 0.5 0.90625
vt 0.5 0.78125
vt 0 0.78125
vt 0.0625 0.90625
vt 0.8125 0.90625
vt 0.8125 0.78125
vt 0.0625 0.78125
vt 0 0.9375
vt 0.5 0.9375
vt 0.5 0.1875
vt 0 0.1875
vt 0 1
vt 0.5 1
vt 0.5 0.25
vt 0 0.25
vn 0 -0.000000 1
vn 1 0 0
vn 0 0.000000 -1
vn -1 0 0
vn 0 -1 -0.000000
vn 0 1 0.000000
usemtl none
f 36/100/25 39/99/25 37/98/25 34/97/25
f 35/104/26 36/103/26 34/102/26 33/101/26
f 40/108/27 35/107/27 33/106/27 38/105/27
f 39/112/28 40/111/28 38/110/28 37/109/28
f 38/116/29 33/115/29 34/114/29 37/113/29
f 39/120/30 36/119/30 35/118/30 40/117/30
o cube
v -0.25 -1.78125 0.5
v -0.25 -1.78125 -0.5
v -0.25 -2 0.5
v -0.25 -2 -0.5
v -0.75 -1.34375 0.5
v -0.75 -1.34375 -0.5
v -0.75 -1.5625 0.5
v -0.75 -1.5625 -0.5
v -0.25 -1.34375 0.25
v -0.25 -1.34375 -0.25
v -0.25 -1.65625 0.25
v -0.25 -1.65625 -0.25
v -0.75 -0.90625 0.25
v -0.75 -0.90625 -0.25
v -0.75 -1.21875 0.25
v -0.75 -1.21875 -0.25
v -0.25 -1.21875 -0.49999999999999994
v -0.25 -1.21875 0.5
v -0.25 -0.9999999999999999 -0.49999999999999994
v -0.25 -1 0.5000000000000001
v -0.75 -0.7812499999999999 -0.4999999999999999
v -0.75 -0.7812500000000001 0.5000000000000001
v -0.75 -0.5624999999999999 -0.4999999999999999
v -0.75 -0.5625000000000001 0.5000000000000001
v -0.25 -1.34375 -0.375
v -0.25 -1.34375 0.375
v -0.25 -1.21875 -0.37499999999999994
v -0.25 -1.21875 0.37500000000000006
v -0.75 -0.90625 -0.37499999999999994
v -0.75 -0.90625 0.37500000000000006
v -0.75 -0.78125 -0.3749999999999999
v -0.75 -0.78125 0.3750000000000001
v -0.25 -1.78125 -0.37500000000000006
v -0.25 -1.78125 0.37499999999999994
v -0.25 -1.65625 -0.375
v -0.25 -1.65625 0.375
v -0.75 -1.34375 -0.375
v -0.75 -1.34375 0.375
v -0.75 -1.21875 -0.375
v -0.75 -1.21875 0.375
v -0.75 -1.34375 0.5
v -0.75 -1.34375 -0.5
v -0.75 -1.5625 0.5
v -0.75 -1.5625 -0.5
v -1.5 -0.28125 0.5
v -1.5 -0.28125 -0.5
v -1.5 -0.5 0.5
v -1.5 -0.5 -0.5
v -0.75 -0.90625 0.25
v -0.75 -0.90625 -0.25
v -0.75 -1.21875 0.25
v -0.75 -1.21875 -0.25
v -1.5 0.15625 0.25
v -1.5 0.15625 -0.25
v -1.5 -0.15625 0.25
v -1.5 -0.15625 -0.25
v -0.75 -0.78125 -0.49999999999999994
v -0.75 -0.78125 0.5
v -0.75 -0.5624999999999999 -0.49999999999999994
v -0.75 -0.5625000000000001 0.5000000000000001
v -1.5 0.28125 -0.49999999999999983
v -1.5 0.28125 0.5000000000000002
v -1.5 0.5 -0.4999999999999998
v -1.5 0.5 0.5000000000000002
v -0.75 -0.90625 -0.37499999999999994
v -0.75 -0.90625 0.37500000000000006
v -0.75 -0.78125 -0.37499999999999994
v -0.75 -0.78125 0.37500000000000006
v -1.5 0.15625 -0.37499999999999983
v -1.5 0.15625 0.37500000000000017
v -1.5 0.28125 -0.37499999999999983
v -1.5 0.28125 0.37500000000000017
v -0.75 -1.34375 -0.375
v -0.75 -1.34375 0.375
v -0.75 -1.21875 -0.375
v -0.75 -1.21875 0.375
v -1.5 -0.28125 -0.3749999999999999
v -1.5 -0.28125 0.3750000000000001
v -1.5 -0.15625 -0.3749999999999999
v -1.5 -0.15625 0.3750000000000001
vt 1 0.75
vt 1 0.96875
vt 0 0.96875
vt 0 0.75
vt 1 0.75
vt 1 0.96875
vt 0 0.96875
vt 0 0.75
vt 0.5 0
vt 0.5 1
vt 0 1
vt 0 0
vt 0.5 0
vt 0.5 1
vt 0 1
vt 0 0
vt 0.5 0.75
vt 0.5 0.96875
vt 0 0.96875
vt 0 0.75
vt 1 0.75
vt 1 0.96875
vt 0.5 0.96875
vt 0.5 0.75
vt 0.5 0.6875
vt 0.5 1
vt 0 1
vt 0 0.6875
vt 0.75 0.6875
vt 0.75 1
vt 0.25 1
vt 0.25 0.6875
vt 0.5 0.25
vt 0.5 0.75
vt 0 0.75
vt 0 0.25
vt 0.5 0.5
vt 0.5 1
vt 0 1
vt 0 0.5
vt 0.5 0.6875
vt 0.5 1
vt 0 1
vt 0 0.6875
vt 1 0.6875
vt 1 1
vt 0.5 1
vt 0.5 0.6875
vt 1 0.75
vt 1 0.96875
vt 0 0.96875
vt 0 0.75
vt 1 0.75
vt 1 0.96875
vt 0 0.96875
vt 0 0.75
vt 0.5 0
vt 0.5 1
vt 0 1
vt 0 0
vt 0.5 0
vt 0.5 1
vt 0 1
vt 0 0
vt 0.5 0.75
vt 0.5 0.96875
vt 0 0.96875
vt 0 0.75
vt 1 0.75
vt 1 0.96875
vt 0.5 0.96875
vt 0.5 0.75
vt 0.75 0.84375
vt 0.75 0.96875
vt 0 0.96875
vt 0 0.84375
vt 0.8125 0.84375
vt 0.8125 0.96875
vt 0.0625 0.96875
vt 0.0625 0.84375
vt 0.5 0.1875
vt 0.5 0.9375
vt 0 0.9375
vt 0 0.1875
vt 0.5 0.25
vt 0.5 1
vt 0 1
vt 0 0.25
vt 0.5 0.84375
vt 0.5 0.96875
vt 0 0.96875
vt 0 0.84375
vt 1 0.84375
vt 1 0.96875
vt 0.5 0.96875
vt 0.5 0.84375
vt 0.75 0.78125
vt 0.75 0.90625
vt 0 0.90625
vt 0 0.78125
vt 0.8125 0.78125
vt 0.8125 0.90625
vt 0.0625 0.90625
vt 0.0625 0.78125
vt 0.5 0.1875
vt 0.5 0.9375
vt 0 0.9375
vt 0 0.1875
vt 0.5 0.25
vt 0.5 1
vt 0 1
vt 0 0.25
vt 0.5 0.78125
vt 0.5 0.90625
vt 0 0.90625
vt 0 0.78125
vt 1 0.78125
vt 1 0.90625
vt 0.5 0.90625
vt 0.5 0.78125
vt 1 0.75
vt 1 0.96875
vt 0 0.96875
vt 0 0.75
vt 1 0.75
vt 1 0.96875
vt 0 0.96875
vt 0 0.75
vt 0.5 0
vt 0.5 1
vt 0 1
vt 0 0
vt 0.5 0
vt 0.5 1
vt 0 1
vt 0 0
vt 0.5 0.75
vt 0.5 0.96875
vt 0 0.96875
vt 0 0.75
vt 1 0.75
vt 1 0.96875
vt 0.5 0.96875
vt 0.5 0.75
vt 0.5 0.6875
vt 0.5 1
vt 0 1
vt 0 0.6875
vt 0.75 0.6875
vt 0.75 1
vt 0.25 1
vt 0.25 0.6875
vt 0.5 0.25
vt 0.5 0.75
vt 0 0.75
vt 0 0.25
vt 0.5 0.5
vt 0.5 1
vt 0 1
vt 0 0.5
vt 0.5 0.6875
vt 0.5 1
vt 0 1
vt 0 0.6875
vt 1 0.6875
vt 1 1
vt 0.5 1
vt 0.5 0.6875
vt 1 0.75
vt 1 0.96875
vt 0 0.96875
vt 0 0.75
vt 1 0.75
vt 1 0.96875
vt 0 0.96875
vt 0 0.75
vt 0.5 0
vt 0.5 1
vt 0 1
vt 0 0
vt 0.5 0
vt 0.5 1
vt 0 1
vt 0 0
vt 0.5 0.75
vt 0.5 0.96875
vt 0 0.96875
vt 0 0.75
vt 1 0.75
vt 1 0.96875
vt 0.5 0.96875
vt 0.5 0.75
vt 0.75 0.84375
vt 0.75 0.96875
vt 0 0.96875
vt 0 0.84375
vt 0.8125 0.84375
vt 0.8125 0.96875
vt 0.0625 0.96875
vt 0.0625 0.84375
vt 0.5 0.1875
vt 0.5 0.9375
vt 0 0.9375
vt 0 0.1875
vt 0.5 0.25
vt 0.5 1
vt 0 1
vt 0 0.25
vt 0.5 0.84375
vt 0.5 0.96875
vt 0 0.96875
vt 0 0.84375
vt 1 0.84375
vt 1 0.96875
vt 0.5 0.96875
vt 0.5 0.84375
vt 0.75 0.78125
vt 0.75 0.90625
vt 0 0.90625
vt 0 0.78125
vt 0.8125 0.78125
vt 0.8125 0.90625
vt 0.0625 0.90625
vt 0.0625 0.78125
vt 0.5 0.1875
vt 0.5 0.9375
vt 0 0.9375
vt 0 0.1875
vt 0.5 0.25
vt 0.5 1
vt 0 1
vt 0 0.25
vt 0.5 0.78125
vt 0.5 0.90625
vt 0 0.90625
vt 0 0.78125
vt 1 0.78125
vt 1 0.90625
vt 0.5 0.90625
vt 0.5 0.78125
vn 1 0 0
vn -1 0 0
vn 0.658504607868518 0.7525766947068778 0
vn -0.658504607868518 -0.7525766947068778 0
vn 0 0 1
vn 0 0 -1
vn 1 0 0
vn -1 0 0
vn 0.658504607868518 0.7525766947068778 0
vn -0.658504607868518 -0.7525766947068778 0
vn 0 0 1
vn 0 0 -1
vn 1 0 0
vn -1 0 0
vn -0.658504607868518 -0.7525766947068779 0
vn 0.658504607868518 0.7525766947068778 0.000000
vn -0.000000 0 -1
vn 0.000000 0 1
vn 1 0 0
vn -1 0 0
vn -0.658504607868518 -0.7525766947068778 0
vn 0.658504607868518 0.7525766947068778 0
vn 0.000000 0.000000 -1
vn -0.000000 -0.000000 1
vn 1 0 0
vn -1 0 0
vn -0.658504607868518 -0.7525766947068778 0
vn 0.658504607868518 0.7525766947068778 0
vn 0.000000 0.000000 -1
vn 0.000000 0 1
vn 1 0 0
vn -1 0 0
vn 0.8169678632647618 0.5766831975986554 0
vn -0.8169678632647618 -0.5766831975986554 0
vn 0 0 1
vn 0 0 -1
vn 1 0 0
vn -1 0 0
vn 0.8169678632647618 0.5766831975986554 0
vn -0.8169678632647618 -0.5766831975986554 0
vn 0 0 1
vn 0 0 -1
vn 1 0 0
vn -1 0 0
vn -0.8169678632647618 -0.5766831975986554 0
vn 0.8169678632647618 0.5766831975986555 0.000000
vn -0.000000 0 -1
vn 0.000000 0 1
vn 1 0 0
vn -1 0 0
vn -0.8169678632647617 -0.5766831975986553 0
vn 0.8169678632647617 0.5766831975986553 0
vn -0.000000 0 -1
vn 0.000000 0 1
vn 1 0 0
vn -1 0 0
vn -0.8169678632647617 -0.5766831975986553 0
vn 0.8169678632647617 0.5766831975986553 0
vn -0.000000 0 -1
vn 0.000000 0 1
usemtl none
f 44/121/31 42/122/31 41/123/31 43/124/31
f 47/125/32 45/126/32 46/127/32 48/128/32
f 41/129/33 42/130/33 46/131/33 45/132/33
f 44/133/34 43/134/34 47/135/34 48/136/34
f 43/137/35 41/138/35 45/139/35 47/140/35
f 48/141/36 46/142/36 42/143/36 44/144/36
f 52/145/37 50/146/37 49/147/37 51/148/37
f 55/149/38 53/150/38 54/151/38 56/152/38
f 49/153/39 50/154/39 54/155/39 53/156/39
f 52/157/40 51/158/40 55/159/40 56/160/40
f 51/161/41 49/162/41 53/163/41 55/164/41
f 56/165/42 54/166/42 50/167/42 52/168/42
f 60/169/43 58/170/43 57/171/43 59/172/43
f 63/173/44 61/174/44 62/175/44 64/176/44
f 57/177/45 58/178/45 62/179/45 61/180/45
f 60/181/46 59/182/46 63/183/46 64/184/46
f 59/185/47 57/186/47 61/187/47 63/188/47
f 64/189/48 62/190/48 58/191/48 60/192/48
f 68/193/49 66/194/49 65/195/49 67/196/49
f 71/197/50 69/198/50 70/199/50 72/200/50
f 65/201/51 66/202/51 70/203/51 69/204/51
f 68/205/52 67/206/52 71/207/52 72/208/52
f 67/209/53 65/210/53 69/211/53 71/212/53
f 72/213/54 70/214/54 66/215/54 68/216/54
f 76/217/55 74/218/55 73/219/55 75/220/55
f 79/221/56 77/222/56 78/223/56 80/224/56
f 73/225/57 74/226/57 78/227/57 77/228/57
f 76/229/58 75/230/58 79/231/58 80/232/58
f 75/233/59 73/234/59 77/235/59 79/236/59
f 80/237/60 78/238/60 74/239/60 76/240/60
f 84/241/61 82/242/61 81/243/61 83/244/61
f 87/245/62 85/246/62 86/247/62 88/248/62
f 81/249/63 82/250/63 86/251/63 85/252/63
f 84/253/64 83/254/64 87/255/64 88/256/64
f 83/257/65 81/258/65 85/259/65 87/260/65
f 88/261/66 86/262/66 82/263/66 84/264/66
f 92/265/67 90/266/67 89/267/67 91/268/67
f 95/269/68 93/270/68 94/271/68 96/272/68
f 89/273/69 90/274/69 94/275/69 93/276/69
f 92/277/70 91/278/70 95/279/70 96/280/70
f 91/281/71 89/282/71 93/283/71 95/284/71
f 96/285/72 94/286/72 90/287/72 92/288/72
f 100/289/73 98/290/73 97/291/73 99/292/73
f 103/293/74 101/294/74 102/295/74 104/296/74
f 97/297/75 98/298/75 102/299/75 101/300/75
f 100/301/76 99/302/76 103/303/76 104/304/76
f 99/305/77 97/306/77 101/307/77 103/308/77
f 104/309/78 102/310/78 98/311/78 100/312/78
f 108/313/79 106/314/79 105/315/79 107/316/79
f 111/317/80 109/318/80 110/319/80 112/320/80
f 105/321/81 106/322/81 110/323/81 109/324/81
f 108/325/82 107/326/82 111/327/82 112/328/82
f 107/329/83 105/330/83 109/331/83 111/332/83
f 112/333/84 110/334/84 106/335/84 108/336/84
f 116/337/85 114/338/85 113/339/85 115/340/85
f 119/341/86 117/342/86 118/343/86 120/344/86
f 113/345/87 114/346/87 118/347/87 117/348/87
f 116/349/88 115/350/88 119/351/88 120/352/88
f 115/353/89 113/354/89 117/355/89 119/356/89
f 120/357/90 118/358/90 114/359/90 116/360/90