# Blender 4.5.3 LTS
# www.blender.org
mtllib ubend.mtl
o Plane.002
v 0.500000 -0.000000 -0.187500
v 0.500000 0.000000 0.187500
v 0.500000 -0.062500 -0.187500
v 0.500000 -0.062500 -0.125000
v 0.500000 -0.062500 0.125000
v 0.500000 -0.062500 0.187500
v 0.500000 -0.187500 -0.187500
v 0.500000 -0.187500 -0.125000
v 0.500000 -0.187500 0.125000
v 0.500000 -0.187500 0.187500
v 0.500000 -0.250000 -0.187500
v 0.500000 -0.250000 0.187500
v 0.500000 -0.250000 -0.250000
v 0.500000 -0.000000 -0.250000
v 0.500000 0.000000 0.250000
v 0.500000 -0.250000 0.250000
v 0.500000 0.125000 -0.250000
v 0.500000 -0.375000 -0.250000
v 0.500000 0.125000 0.250000
v 0.500000 -0.375000 0.250000
v -0.500000 -0.375000 0.250000
v -0.500000 0.125000 0.250000
v -0.500000 -0.375000 -0.250000
v -0.500000 0.125000 -0.250000
v -0.500000 -0.250000 0.250000
v -0.500000 0.000000 0.250000
v -0.500000 -0.000000 -0.250000
v -0.500000 -0.250000 -0.250000
v -0.500000 -0.250000 0.187500
v -0.500000 -0.250000 -0.187500
v -0.500000 -0.187500 0.187500
v -0.500000 -0.187500 0.125000
v -0.500000 -0.187500 -0.125000
v -0.500000 -0.187500 -0.187500
v -0.500000 -0.062500 0.187500
v -0.500000 -0.062500 0.125000
v -0.500000 -0.062500 -0.125000
v -0.500000 -0.062500 -0.187500
v -0.500000 0.000000 0.187500
v -0.500000 -0.000000 -0.187500
v 0.402369 -0.097631 -0.187500
v -0.402369 -0.097631 -0.187500
v 0.258337 -0.202277 -0.187500
v 0.089017 -0.257292 -0.187500
v -0.089017 -0.257292 -0.187500
v -0.258337 -0.202277 -0.187500
v 0.402369 -0.097631 0.187500
v -0.402369 -0.097631 0.187500
v 0.258337 -0.202277 0.187500
v 0.089017 -0.257292 0.187500
v -0.089017 -0.257292 0.187500
v -0.258337 -0.202277 0.187500
v 0.402369 -0.160131 -0.187500
v -0.402369 -0.160131 -0.187500
v 0.258337 -0.264777 -0.187500
v 0.089017 -0.319792 -0.187500
v -0.089017 -0.319792 -0.187500
v -0.258337 -0.264777 -0.187500
v 0.402369 -0.160131 -0.125000
v -0.402369 -0.160131 -0.125000
v 0.258337 -0.264777 -0.125000
v 0.089017 -0.319792 -0.125000
v -0.089017 -0.319792 -0.125000
v -0.258337 -0.264777 -0.125000
v 0.402369 -0.160131 0.125000
v -0.402369 -0.160131 0.125000
v 0.258337 -0.264777 0.125000
v 0.089017 -0.319792 0.125000
v -0.089017 -0.319792 0.125000
v -0.258337 -0.264777 0.125000
v 0.402369 -0.160131 0.187500
v -0.402369 -0.160131 0.187500
v 0.258337 -0.264777 0.187500
v 0.089017 -0.319792 0.187500
v -0.089017 -0.319792 0.187500
v -0.258337 -0.264777 0.187500
v 0.402369 -0.285131 -0.187500
v -0.402369 -0.285131 -0.187500
v 0.258337 -0.389777 -0.187500
v 0.089017 -0.444792 -0.187500
v -0.089017 -0.444792 -0.187500
v -0.258337 -0.389777 -0.187500
v 0.402369 -0.285131 -0.125000
v -0.402369 -0.285131 -0.125000
v 0.258337 -0.389777 -0.125000
v 0.089017 -0.444792 -0.125000
v -0.089017 -0.444792 -0.125000
v -0.258337 -0.389777 -0.125000
v 0.402369 -0.285131 0.125000
v -0.402369 -0.285131 0.125000
v 0.258337 -0.389777 0.125000
v 0.089017 -0.444792 0.125000
v -0.089017 -0.444792 0.125000
v -0.258337 -0.389777 0.125000
v 0.402369 -0.285131 0.187500
v -0.402369 -0.285131 0.187500
v 0.258337 -0.389777 0.187500
v 0.089017 -0.444792 0.187500
v -0.089017 -0.444792 0.187500
v -0.258337 -0.389777 0.187500
v 0.402369 -0.347631 -0.187500
v -0.402369 -0.347631 -0.187500
v 0.258337 -0.452277 -0.187500
v 0.089017 -0.507292 -0.187500
v -0.089017 -0.507292 -0.187500
v -0.258337 -0.452277 -0.187500
v 0.402369 -0.347631 0.187500
v -0.402369 -0.347631 0.187500
v 0.258337 -0.452277 0.187500
v 0.089017 -0.507292 0.187500
v -0.089017 -0.507292 0.187500
v -0.258337 -0.452277 0.187500
v 0.402369 -0.347631 -0.250000
v -0.402369 -0.347631 -0.250000
v 0.258337 -0.452277 -0.250000
v 0.089017 -0.507292 -0.250000
v -0.089017 -0.507292 -0.250000
v -0.258337 -0.452277 -0.250000
v -0.402369 -0.097631 -0.250000
v 0.402369 -0.097631 -0.250000
v -0.258337 -0.202277 -0.250000
v -0.089017 -0.257292 -0.250000
v 0.089017 -0.257292 -0.250000
v 0.258337 -0.202277 -0.250000
v 0.402369 -0.097631 0.250000
v -0.402369 -0.097631 0.250000
v 0.258337 -0.202277 0.250000
v 0.089017 -0.257292 0.250000
v -0.089017 -0.257292 0.250000
v -0.258337 -0.202277 0.250000
v 0.402369 -0.347631 0.250000
v -0.402369 -0.347631 0.250000
v 0.258337 -0.452277 0.250000
v 0.089017 -0.507292 0.250000
v -0.089017 -0.507292 0.250000
v -0.258337 -0.452277 0.250000
v 0.402369 0.027369 -0.250000
v -0.402369 0.027369 -0.250000
v 0.258337 -0.077277 -0.250000
v 0.089017 -0.132292 -0.250000
v -0.089017 -0.132292 -0.250000
v -0.258337 -0.077277 -0.250000
v 0.402369 -0.472631 -0.250000
v -0.402369 -0.472631 -0.250000
v 0.258337 -0.577277 -0.250000
v 0.089017 -0.632292 -0.250000
v -0.089017 -0.632292 -0.250000
v -0.258337 -0.577277 -0.250000
v 0.402369 0.027369 0.250000
v -0.402369 0.027369 0.250000
v 0.258337 -0.077277 0.250000
v 0.089017 -0.132292 0.250000
v -0.089017 -0.132292 0.250000
v -0.258337 -0.077277 0.250000
v 0.402369 -0.472631 0.250000
v -0.402369 -0.472631 0.250000
v 0.258337 -0.577277 0.250000
v 0.089017 -0.632292 0.250000
v -0.089017 -0.632292 0.250000
v -0.258337 -0.577277 0.250000
vn -0.0000 -0.0000 1.0000
vn -0.5878 -0.8090 -0.0000
vn -0.3090 -0.9511 -0.0000
vn -0.0000 -1.0000 -0.0000
vn 0.3090 -0.9511 -0.0000
vn 0.5878 -0.8090 -0.0000
vn -0.0000 -0.0000 -1.0000
vn -0.5878 0.8090 -0.0000
vn -0.3090 0.9511 -0.0000
vn -0.0000 1.0000 -0.0000
vn 0.3090 0.9511 -0.0000
vn 0.5878 0.8090 -0.0000
vn 0.7071 0.7071 -0.0000
vn -0.7071 0.7071 -0.0000
vn -0.7071 -0.7071 -0.0000
vn 0.7071 -0.7071 -0.0000
vn -1.0000 -0.0000 -0.0000
vn 1.0000 -0.0000 -0.0000
vt 0.000000 0.000000
s 1
f 138/1/1 119/1/1 121/1/1 142/1/1
f 142/1/1 121/1/1 122/1/1 141/1/1
f 141/1/1 122/1/1 123/1/1 140/1/1
f 140/1/1 123/1/1 124/1/1 139/1/1
f 139/1/1 124/1/1 120/1/1 137/1/1
f 150/1/2 138/1/2 142/1/2 154/1/2
f 154/1/3 142/1/3 141/1/3 153/1/3
f 153/1/4 141/1/4 140/1/4 152/1/4
f 152/1/5 140/1/5 139/1/5 151/1/5
f 151/1/6 139/1/6 137/1/6 149/1/6
f 149/1/7 125/1/7 127/1/7 151/1/7
f 151/1/7 127/1/7 128/1/7 152/1/7
f 152/1/7 128/1/7 129/1/7 153/1/7
f 153/1/7 129/1/7 130/1/7 154/1/7
f 154/1/7 130/1/7 126/1/7 150/1/7
f 125/1/8 47/1/8 49/1/8 127/1/8
f 127/1/9 49/1/9 50/1/9 128/1/9
f 128/1/10 50/1/10 51/1/10 129/1/10
f 129/1/11 51/1/11 52/1/11 130/1/11
f 130/1/12 52/1/12 48/1/12 126/1/12
f 72/1/7 48/1/7 52/1/7 76/1/7
f 76/1/7 52/1/7 51/1/7 75/1/7
f 75/1/7 51/1/7 50/1/7 74/1/7
f 74/1/7 50/1/7 49/1/7 73/1/7
f 73/1/7 49/1/7 47/1/7 71/1/7
f 71/1/8 65/1/8 67/1/8 73/1/8
f 73/1/9 67/1/9 68/1/9 74/1/9
f 74/1/10 68/1/10 69/1/10 75/1/10
f 75/1/11 69/1/11 70/1/11 76/1/11
f 76/1/12 70/1/12 66/1/12 72/1/12
f 90/1/7 66/1/7 70/1/7 94/1/7
f 94/1/7 70/1/7 69/1/7 93/1/7
f 93/1/7 69/1/7 68/1/7 92/1/7
f 92/1/7 68/1/7 67/1/7 91/1/7
f 91/1/7 67/1/7 65/1/7 89/1/7
f 96/1/2 90/1/2 94/1/2 100/1/2
f 100/1/3 94/1/3 93/1/3 99/1/3
f 99/1/4 93/1/4 92/1/4 98/1/4
f 98/1/5 92/1/5 91/1/5 97/1/5
f 97/1/6 91/1/6 89/1/6 95/1/6
f 108/1/7 96/1/7 100/1/7 112/1/7
f 112/1/7 100/1/7 99/1/7 111/1/7
f 111/1/7 99/1/7 98/1/7 110/1/7
f 110/1/7 98/1/7 97/1/7 109/1/7
f 109/1/7 97/1/7 95/1/7 107/1/7
f 132/1/2 108/1/2 112/1/2 136/1/2
f 136/1/3 112/1/3 111/1/3 135/1/3
f 135/1/4 111/1/4 110/1/4 134/1/4
f 134/1/5 110/1/5 109/1/5 133/1/5
f 133/1/6 109/1/6 107/1/6 131/1/6
f 156/1/7 132/1/7 136/1/7 160/1/7
f 160/1/7 136/1/7 135/1/7 159/1/7
f 159/1/7 135/1/7 134/1/7 158/1/7
f 158/1/7 134/1/7 133/1/7 157/1/7
f 157/1/7 133/1/7 131/1/7 155/1/7
f 155/1/8 143/1/8 145/1/8 157/1/8
f 157/1/9 145/1/9 146/1/9 158/1/9
f 158/1/10 146/1/10 147/1/10 159/1/10
f 159/1/11 147/1/11 148/1/11 160/1/11
f 160/1/12 148/1/12 144/1/12 156/1/12
f 114/1/1 144/1/1 148/1/1 118/1/1
f 118/1/1 148/1/1 147/1/1 117/1/1
f 117/1/1 147/1/1 146/1/1 116/1/1
f 116/1/1 146/1/1 145/1/1 115/1/1
f 115/1/1 145/1/1 143/1/1 113/1/1
f 113/1/6 101/1/6 103/1/6 115/1/6
f 115/1/5 103/1/5 104/1/5 116/1/5
f 116/1/4 104/1/4 105/1/4 117/1/4
f 117/1/3 105/1/3 106/1/3 118/1/3
f 118/1/2 106/1/2 102/1/2 114/1/2
f 101/1/1 77/1/1 79/1/1 103/1/1
f 103/1/1 79/1/1 80/1/1 104/1/1
f 104/1/1 80/1/1 81/1/1 105/1/1
f 105/1/1 81/1/1 82/1/1 106/1/1
f 106/1/1 82/1/1 78/1/1 102/1/1
f 84/1/2 78/1/2 82/1/2 88/1/2
f 88/1/3 82/1/3 81/1/3 87/1/3
f 87/1/4 81/1/4 80/1/4 86/1/4
f 86/1/5 80/1/5 79/1/5 85/1/5
f 85/1/6 79/1/6 77/1/6 83/1/6
f 60/1/1 84/1/1 88/1/1 64/1/1
f 64/1/1 88/1/1 87/1/1 63/1/1
f 63/1/1 87/1/1 86/1/1 62/1/1
f 62/1/1 86/1/1 85/1/1 61/1/1
f 61/1/1 85/1/1 83/1/1 59/1/1
f 59/1/8 53/1/8 55/1/8 61/1/8
f 61/1/9 55/1/9 56/1/9 62/1/9
f 62/1/10 56/1/10 57/1/10 63/1/10
f 63/1/11 57/1/11 58/1/11 64/1/11
f 64/1/12 58/1/12 54/1/12 60/1/12
f 53/1/1 41/1/1 43/1/1 55/1/1
f 55/1/1 43/1/1 44/1/1 56/1/1
f 56/1/1 44/1/1 45/1/1 57/1/1
f 57/1/1 45/1/1 46/1/1 58/1/1
f 58/1/1 46/1/1 42/1/1 54/1/1
f 119/1/12 42/1/12 46/1/12 121/1/12
f 121/1/11 46/1/11 45/1/11 122/1/11
f 122/1/10 45/1/10 44/1/10 123/1/10
f 123/1/9 44/1/9 43/1/9 124/1/9
f 124/1/8 43/1/8 41/1/8 120/1/8
f 42/1/1 40/1/1 38/1/1 54/1/1
f 3/1/1 1/1/1 41/1/1 53/1/1
f 119/1/13 27/1/13 40/1/13 42/1/13
f 1/1/14 14/1/14 120/1/14 41/1/14
f 48/1/13 39/1/13 26/1/13 126/1/13
f 15/1/14 2/1/14 47/1/14 125/1/14
f 72/1/7 35/1/7 39/1/7 48/1/7
f 2/1/7 6/1/7 71/1/7 47/1/7
f 54/1/13 38/1/13 37/1/13 60/1/13
f 4/1/14 3/1/14 53/1/14 59/1/14
f 60/1/1 37/1/1 33/1/1 84/1/1
f 8/1/1 4/1/1 59/1/1 83/1/1
f 66/1/13 36/1/13 35/1/13 72/1/13
f 6/1/14 5/1/14 65/1/14 71/1/14
f 90/1/7 32/1/7 36/1/7 66/1/7
f 5/1/7 9/1/7 89/1/7 65/1/7
f 78/1/1 34/1/1 30/1/1 102/1/1
f 11/1/1 7/1/1 77/1/1 101/1/1
f 84/1/15 33/1/15 34/1/15 78/1/15
f 7/1/16 8/1/16 83/1/16 77/1/16
f 96/1/15 31/1/15 32/1/15 90/1/15
f 9/1/16 10/1/16 95/1/16 89/1/16
f 108/1/7 29/1/7 31/1/7 96/1/7
f 10/1/7 12/1/7 107/1/7 95/1/7
f 102/1/15 30/1/15 28/1/15 114/1/15
f 13/1/16 11/1/16 101/1/16 113/1/16
f 132/1/15 25/1/15 29/1/15 108/1/15
f 12/1/16 16/1/16 131/1/16 107/1/16
f 114/1/1 28/1/1 23/1/1 144/1/1
f 18/1/1 13/1/1 113/1/1 143/1/1
f 138/1/1 24/1/1 27/1/1 119/1/1
f 14/1/1 17/1/1 137/1/1 120/1/1
f 126/1/7 26/1/7 22/1/7 150/1/7
f 19/1/7 15/1/7 125/1/7 149/1/7
f 156/1/7 21/1/7 25/1/7 132/1/7
f 16/1/7 20/1/7 155/1/7 131/1/7
f 150/1/15 22/1/15 24/1/15 138/1/15
f 17/1/16 19/1/16 149/1/16 137/1/16
f 144/1/13 23/1/13 21/1/13 156/1/13
f 20/1/14 18/1/14 143/1/14 155/1/14
f 19/1/17 17/1/17 14/1/17 15/1/17
f 3/1/17 6/1/17 2/1/17 1/1/17
f 8/1/17 9/1/17 5/1/17 4/1/17
f 11/1/17 12/1/17 10/1/17 7/1/17
f 18/1/17 20/1/17 16/1/17 13/1/17
f 27/1/18 24/1/18 22/1/18 26/1/18
f 39/1/18 35/1/18 38/1/18 40/1/18
f 36/1/18 32/1/18 33/1/18 37/1/18
f 31/1/18 29/1/18 30/1/18 34/1/18
f 25/1/18 21/1/18 23/1/18 28/1/18
